<?xml version="1.0" encoding="UTF-8" standalone="no"?>
<!-- Created with Inkscape (http://www.inkscape.org/) -->
<svg
   xmlns:svg="http://www.w3.org/2000/svg"
   xmlns="http://www.w3.org/2000/svg"
   xmlns:xlink="http://www.w3.org/1999/xlink"
   version="1.0"
   width="298.77972"
   height="190.25607"
   id="svg2">
  <defs
     id="defs4">
    <linearGradient
       id="linearGradient10081">
      <stop
         style="stop-color:white;stop-opacity:1"
         offset="0"
         id="stop10083" />
      <stop
         style="stop-color:#0e1d6b;stop-opacity:1"
         offset="0.5"
         id="stop10089" />
      <stop
         style="stop-color:#0d1c6a;stop-opacity:1"
         offset="0.5"
         id="stop10091" />
      <stop
         style="stop-color:white;stop-opacity:1"
         offset="1"
         id="stop10085" />
    </linearGradient>
    <linearGradient
       id="linearGradient8230">
      <stop
         style="stop-color:black;stop-opacity:0.48453608"
         offset="0"
         id="stop8232" />
      <stop
         style="stop-color:black;stop-opacity:0.49803922"
         offset="0.18261506"
         id="stop8238" />
      <stop
         style="stop-color:black;stop-opacity:0.24705882"
         offset="0.82326812"
         id="stop8240" />
      <stop
         style="stop-color:black;stop-opacity:0"
         offset="1"
         id="stop8234" />
    </linearGradient>
    <marker
       refX="0"
       refY="0"
       orient="auto"
       style="overflow:visible"
       id="Arrow1Send">
      <path
         d="M 0,0 L 5,-5 L -12.5,0 L 5,5 L 0,0 z "
         transform="matrix(-0.2,0,0,-0.2,-1.2,0)"
         style="fill-rule:evenodd;stroke:black;stroke-width:1pt;marker-start:none"
         id="path6374" />
    </marker>
    <marker
       refX="0"
       refY="0"
       orient="auto"
       style="overflow:visible"
       id="Arrow1Lstart">
      <path
         d="M 0,0 L 5,-5 L -12.5,0 L 5,5 L 0,0 z "
         transform="matrix(0.8,0,0,0.8,10,0)"
         style="fill-rule:evenodd;stroke:black;stroke-width:1pt;marker-start:none"
         id="path6389" />
    </marker>
    <linearGradient
       x1="433.3931"
       y1="194.87166"
       x2="583.19336"
       y2="394.15738"
       id="linearGradient10087"
       xlink:href="#linearGradient10081"
       gradientUnits="userSpaceOnUse"
       gradientTransform="translate(-346.4286,-184.2857)" />
    <radialGradient
       cx="303.92856"
       cy="279.86218"
       r="78.928574"
       fx="303.92856"
       fy="279.86218"
       id="radialGradient10986"
       xlink:href="#linearGradient8230"
       gradientUnits="userSpaceOnUse"
       gradientTransform="matrix(0.976496,0.575682,-0.193201,0.550563,61.21372,-49.18557)" />
    <radialGradient
       cx="303.92856"
       cy="279.86218"
       r="78.928574"
       fx="303.92856"
       fy="279.86218"
       id="radialGradient10989"
       xlink:href="#linearGradient8230"
       gradientUnits="userSpaceOnUse"
       gradientTransform="matrix(0.802752,0.300856,-8.308673e-2,0.598788,83.20284,20.84518)" />
  </defs>
  <g
     style="display:inline"
     id="layer3">
    <path
       d="M 382.85713 279.86218 A 78.928574 48.214287 0 1 1  224.99998,279.86218 A 78.928574 48.214287 0 1 1  382.85713 279.86218 z"
       transform="matrix(1.878746,-0.799291,0.148391,1.451296,-461.9235,-67.8514)"
       style="opacity:1;fill:white;fill-opacity:1;fill-rule:nonzero;stroke:black;stroke-width:1.10000002;stroke-linecap:round;stroke-linejoin:round;stroke-miterlimit:4;stroke-dasharray:none;stroke-opacity:1;display:inline"
       id="path4667" />
  </g>
  <g
     transform="translate(-11.68083,-7.591859)"
     style="opacity:1;display:inline"
     id="layer1">
    <rect
       width="252.14285"
       height="472.43747"
       x="6840.8379"
       y="2107.4553"
       transform="matrix(1,0,-0.986828,0.161775,0,0)"
       style="opacity:1;fill:#ff8080;stroke:black;stroke-width:2.48624778"
       id="rect4728" />
    <flowRoot
       transform="translate(-16.42857,138.5714)"
       style="font-size:12px;font-style:normal;font-variant:normal;font-weight:normal;font-stretch:normal;text-align:start;line-height:125%;writing-mode:tb-rl;text-anchor:start;font-family:Bitstream Vera Sans"
       id="flowRoot7305"
       xml:space="preserve"><flowRegion
         id="flowRegion7307"><rect
           width="182.14285"
           height="15"
           x="519.28571"
           y="370.93362"
           style="font-size:12px;font-style:normal;font-variant:normal;font-weight:normal;font-stretch:normal;text-align:start;line-height:125%;writing-mode:tb-rl;text-anchor:start;font-family:Bitstream Vera Sans"
           id="rect7309" /></flowRegion><flowPara
         id="flowPara7317">jöööööööööööööööööööööö</flowPara></flowRoot>    <path
       d="M 382.85713 279.86218 A 78.928574 48.214287 0 1 1  224.99998,279.86218 A 78.928574 48.214287 0 1 1  382.85713 279.86218 z"
       transform="matrix(1.878746,-0.799291,0.148391,1.451296,-451.4629,-60.51561)"
       style="opacity:1;fill:url(#radialGradient10989);fill-opacity:1;fill-rule:nonzero;stroke:black;stroke-width:1.10000002;stroke-linecap:round;stroke-linejoin:round;stroke-miterlimit:4;stroke-dasharray:none;stroke-opacity:1;display:inline"
       id="path10093" />
  </g>
  <g
     transform="translate(-11.68083,-7.591859)"
     style="display:inline"
     id="layer2">
    <path
       d="M 95.453109,144.29187 L 95.666289,144.22881 C 95.575829,140.00896 95.319139,144.28629 95.610479,144.38227 C 91.728749,146.86553 89.247169,147.88394 83.880009,147.88394 C 78.325299,147.88394 73.801869,146.75894 70.309699,144.50894 C 66.840939,142.23551 64.192499,138.95426 62.364389,134.66519 C 60.559699,130.37615 59.657349,125.77068 59.657359,120.84879 C 59.657349,115.48163 60.676879,110.80586 62.715949,106.82144 C 64.778439,102.81368 67.696409,99.778516 71.469859,97.715976 C 75.266709,95.630086 79.438579,94.587116 83.985479,94.587066 C 89.141699,94.587116 93.477629,95.899616 96.993289,98.524566 C 100.50887,101.14962 102.95809,104.84102 104.34095,109.59879 L 97.626109,111.18082 C 96.430749,107.43086 94.696379,104.70039 92.422979,102.98941 C 90.149509,101.27852 87.290139,100.42305 83.844859,100.42301 C 79.883889,100.42305 76.567489,101.37227 73.895639,103.27066 C 71.247179,105.16914 69.383909,107.72383 68.305789,110.93473 C 67.227659,114.12226 66.688599,117.41522 66.688609,120.81363 C 66.688599,125.19647 67.321409,129.02849 68.587039,132.30973 C 69.876089,135.56755 71.868279,138.00505 74.563609,139.62223 C 77.258899,141.23942 80.176859,142.04801 83.317509,142.04801 C 87.137789,142.04801 90.372169,140.94645 93.020639,138.74332 C 95.669039,136.5402 93.711999,138.18139 95.899539,136.34544 M 95.493289,141.19421 C 95.493289,134.28018 97.415159,129.15909 101.25892,125.83093 C 104.46984,123.06535 108.3839,121.68253 113.00111,121.6825 C 118.13389,121.68253 122.3292,123.37003 125.58704,126.745 C 128.84482,130.09659 130.47372,134.73721 130.47376,140.66687 C 130.47372,145.47157 129.74716,149.25673 128.29407,152.02234 C 126.86435,154.76453 124.7667,156.89734 122.00111,158.42078 C 119.25889,159.94421 116.2589,160.70593 113.00111,160.70593 C 107.77453,160.70593 103.54406,159.03015 100.3097,155.67859 C 97.098759,152.32703 95.493289,147.49891 95.493289,141.19421 M 101.9972,141.19421 C 101.99719,145.97548 103.04016,149.56141 105.12611,151.95203 C 107.21203,154.31922 109.83703,155.50281 113.00111,155.50281 C 116.14171,155.50281 118.75499,154.3075 120.84095,151.91687 C 122.92686,149.52626 123.96982,145.88173 123.96986,140.98328 C 123.96982,136.36611 122.91514,132.87393 120.80579,130.50671 C 118.71983,128.11612 116.11827,126.92081 113.00111,126.92078 C 109.83703,126.92081 107.21203,128.1044 105.12611,130.47156 C 103.04016,132.83877 101.99719,136.41299 101.9972,141.19421 M 124.98045,126.11218 L 125.06974,109.6691 L 130.7299,109.6691 L 130.7299,114.90738 C 131.90176,113.07929 133.46035,111.61445 135.40568,110.51285 C 137.35097,109.38789 139.56581,108.82539 142.05021,108.82535 C 144.81581,108.82539 147.07753,109.39961 148.83536,110.54801 C 150.61658,111.69648 151.87049,113.30195 152.59708,115.36441 C 155.55017,111.00507 159.39392,108.82539 164.12833,108.82535 C 167.83141,108.82539 170.67906,109.85664 172.6713,111.9191 C 174.66344,113.9582 175.65953,117.11054 175.65958,121.37613 L 175.65958,147.00504 L 169.36661,147.00504 L 169.36661,123.48551 C 169.36657,120.95428 169.15563,119.13788 168.7338,118.03629 C 168.33532,116.91132 167.59704,116.00898 166.51896,115.32926 C 165.44079,114.6496 164.17516,114.30976 162.72208,114.30973 C 160.09704,114.30976 157.91736,115.18866 156.18302,116.94644 C 154.44861,118.68085 153.58143,121.46991 153.58146,125.31363 L 153.58146,147.00504 L 147.25333,147.00504 L 147.25333,122.74723 C 147.25331,119.93475 146.73768,117.82538 145.70646,116.4191 C 144.67518,115.01288 142.98769,114.30976 140.64396,114.30973 C 138.86269,114.30976 137.21035,114.77851 135.68693,115.71598 C 134.18691,116.65351 133.09707,118.0246 132.4174,119.82926 C 131.7377,121.63397 131.39785,124.23553 131.39786,127.63394 L 131.39786,147.00504 L 129.98045,147.00504 M 197.47766,134.54243 C 195.13388,136.53462 192.87217,137.94086 190.6925,138.76118 C 188.53623,139.58149 186.21592,139.99164 183.73157,139.99164 C 179.62999,139.99164 177.99551,139.88841 175.7924,137.89622 C 175.55355,135.70203 175.70199,132.59991 175.70199,129.48271 C 175.70199,127.6546 175.93357,127.15126 175.68246,124.93696 C 175.63335,122.16354 175.83033,132.46265 175.73771,120.65571 C 177.09707,119.74166 178.35265,119.05026 180.04016,118.58149 C 181.28234,118.25338 183.15733,117.93698 185.66516,117.63227 C 190.77451,117.02292 194.53623,116.29636 196.95032,115.45258 C 196.97373,114.58542 196.98544,114.03464 196.98547,113.80024 C 196.98544,111.22214 196.38779,109.40574 195.1925,108.35102 C 193.57529,106.92136 191.17295,106.20652 187.98547,106.20649 C 185.00889,106.20652 182.80577,106.73386 181.3761,107.78852 C 179.96984,108.8198 178.92687,110.65964 178.24719,113.30805 L 172.32755,111.2143 C 172.89005,108.56589 173.54797,107.68308 174.83704,106.06586 C 176.12609,104.42527 177.98937,103.17137 180.42688,102.30414 C 182.86436,101.41356 185.68858,100.96825 188.89954,100.96821 C 192.08701,100.96825 194.67685,101.34325 196.66907,102.09321 C 198.66122,102.84324 200.12607,103.79246 201.0636,104.94086 C 202.00106,106.0659 202.65731,107.49558 203.03235,109.22993 C 203.24325,110.30808 203.34872,112.25339 203.34875,115.06586 L 203.34875,123.50336 C 203.34872,129.38619 203.47763,133.11274 203.73547,134.68305 C 204.01669,136.22993 204.55575,137.71821 205.35266,139.14789 L 198.74329,139.14789 C 198.08701,137.8354 197.66513,136.30024 197.47766,134.54243 M 196.95032,120.40961 C 194.65342,121.34713 191.20811,122.14401 186.61438,122.80024 C 184.0128,123.17525 182.17296,123.59713 181.09485,124.06586 C 180.01671,124.53463 179.18468,125.22603 178.59875,126.14008 C 178.01281,127.03072 177.71984,128.02681 177.71985,129.12836 C 177.71984,130.81587 178.35265,132.22212 179.61829,133.34711 C 180.90734,134.47212 182.78233,135.03462 185.24329,135.03461 C 187.68077,135.03462 189.84873,134.50727 191.74719,133.45258 C 193.6456,132.37446 195.04013,130.90962 195.93079,129.05805 C 196.61044,127.62838 196.95029,125.519 196.95032,122.72993 L 196.95032,120.40961 M 164.3459,83.934726 L 171.16621,85.657386 C 169.73648,91.258956 167.15836,95.536296 163.43184,98.489416 C 159.72868,101.41911 155.19352,102.88395 149.82637,102.88395 C 144.27166,102.88395 139.74823,101.75895 136.25606,99.508946 C 132.7873,97.235516 130.13886,93.954266 128.31074,89.665196 C 126.50605,85.376156 125.60371,80.770686 125.60371,75.848796 C 125.60371,70.481636 126.62324,65.805856 128.66231,61.821446 C 130.7248,57.813676 133.64276,54.778526 137.41621,52.715976 C 141.21307,50.630096 145.38494,49.587126 149.93184,49.587076 C 155.08806,49.587126 159.42399,50.899626 162.93965,53.524576 C 166.45523,56.149616 168.90445,59.841026 170.28731,64.598796 L 163.57246,66.180826 C 162.37711,62.430866 160.64274,59.700396 158.36934,57.989416 C 156.09587,56.278526 153.23649,55.423056 149.79121,55.423006 C 145.83025,55.423056 142.51385,56.372276 139.84199,58.270666 C 137.19354,60.169146 135.33026,62.723836 134.25215,65.934726 C 133.17401,69.122266 132.63495,72.415226 132.63496,75.813636 C 132.63495,80.196466 133.26776,84.028496 134.5334,87.309726 C 135.82245,90.567556 137.81464,93.005046 140.50996,94.622226 C 143.20525,96.239426 146.12322,97.048016 149.26387,97.048006 C 153.08415,97.048016 156.31852,95.946456 158.96699,93.743326 C 161.61539,91.540206 163.40836,88.270676 164.3459,83.934726 M 170.82135,94.862186 L 170.82135,43.323126 L 181.08697,43.323126 L 193.28619,79.815306 C 194.41116,83.213756 195.23148,85.756726 195.74713,87.444216 C 196.33304,85.569226 197.2471,82.815326 198.48932,79.182496 L 210.82916,43.323126 L 220.00494,43.323126 L 220.00494,94.862186 L 213.43072,94.862186 L 213.43072,51.725466 L 198.45416,94.862186 L 192.30182,94.862186 L 177.39557,50.987186 L 177.39557,94.862186 L 170.82135,94.862186 M 218.75884,98.303586 L 225.19244,97.741086 C 225.49711,100.31923 226.20024,102.44032 227.30181,104.10437 C 228.4268,105.74501 230.16117,107.08094 232.50494,108.11219 C 234.84867,109.12 237.48538,109.62391 240.41509,109.6239 C 243.01663,109.62391 245.3135,109.23719 247.30572,108.46375 C 249.29787,107.69032 250.77443,106.63563 251.7354,105.29969 C 252.71974,103.94032 253.21193,102.46376 253.21197,100.87 C 253.21193,99.252826 252.74318,97.846576 251.80572,96.651246 C 250.86818,95.432516 249.32131,94.412986 247.16509,93.592646 C 245.78225,93.053606 242.72366,92.221576 237.98931,91.096556 C 233.25492,89.948146 229.93852,88.870016 228.04009,87.862186 C 225.57914,86.573146 223.7393,84.979396 222.52056,83.080936 C 221.32524,81.159086 220.72759,79.014556 220.72759,76.647336 C 220.72759,74.045816 221.46587,71.620036 222.94244,69.369996 C 224.41899,67.096606 226.57524,65.373946 229.41119,64.202026 C 232.24711,63.030206 235.39945,62.444266 238.86822,62.444216 C 242.6885,62.444266 246.05178,63.065356 248.95806,64.307496 C 251.88771,65.526296 254.13771,67.330976 255.70806,69.721556 C 257.27833,72.112226 258.12208,74.819256 258.23931,77.842646 L 251.70025,78.334836 C 251.34865,75.077066 250.15334,72.616126 248.11431,70.952026 C 246.09866,69.288006 243.11038,68.455976 239.14947,68.455936 C 235.02445,68.455976 232.01273,69.217696 230.11431,70.741086 C 228.2393,72.241126 227.3018,74.057536 227.30181,76.190306 C 227.3018,78.041906 227.96977,79.565346 229.30572,80.760616 C 230.6182,81.955966 234.04007,83.186436 239.57134,84.452026 C 245.126,85.694246 248.93459,86.784086 250.99712,87.721556 C 253.99708,89.104396 256.21193,90.862206 257.64165,92.994996 C 259.0713,95.104386 259.78614,97.541886 259.78619,100.3075 C 259.78614,103.0497 259.00099,105.63954 257.43072,108.07703 C 255.86036,110.4911 253.59865,112.37781 250.64556,113.73719 C 247.71584,115.07312 244.41116,115.74109 240.7315,115.74109 C 236.06742,115.74109 232.15336,115.0614 228.98931,113.70203 C 225.84868,112.34266 223.37602,110.3036 221.57134,107.58484 C 219.79009,104.84266 218.85259,101.74892 218.75884,98.303586"
       style="font-size:72px;font-style:normal;font-variant:normal;font-weight:normal;font-stretch:normal;text-align:start;line-height:125%;writing-mode:lr-tb;text-anchor:start;fill:url(#linearGradient10087);fill-opacity:1;fill-rule:nonzero;stroke:black;stroke-width:1.14999998;stroke-linecap:butt;stroke-linejoin:miter;stroke-miterlimit:4;stroke-dasharray:none;stroke-opacity:1;font-family:Arial"
       id="text7313" />
  </g>
</svg>
